<?xml version="1.0" encoding="utf-8"?>
<!-- Generator: Adobe Illustrator 16.0.4, SVG Export Plug-In . SVG Version: 6.00 Build 0)  -->
<!DOCTYPE svg PUBLIC "-//W3C//DTD SVG 1.1//EN" "http://www.w3.org/Graphics/SVG/1.1/DTD/svg11.dtd">
<svg version="1.1" id="Layer_1" xmlns="http://www.w3.org/2000/svg" xmlns:xlink="http://www.w3.org/1999/xlink" x="0px" y="0px"
	 width="100px" height="100px" viewBox="0 0 100 100" style="enable-background:new 0 0 100 100;" xml:space="preserve">
<g>
	<path style="fill-rule:evenodd;clip-rule:evenodd;" d="M56.008,98.042c-4.957,0.042-9.718-0.999-14.469-2.312
		c-6.545-1.809-12.37-5.009-17.855-8.873c-4.049-2.851-7.582-6.285-10.465-10.341c-5.84-8.211-8.198-17.454-7.37-27.375
		c0.396-4.749,1.557-9.477,2.798-14.098c0.699-2.604,2.121-5.059,3.479-7.43c1.786-3.121,3.586-6.29,5.826-9.079
		c2.65-3.301,5.785-6.203,9.259-8.697c3.923-2.816,8.073-5.275,12.715-6.583c7.102-2,14.286-2.389,21.603-0.726
		c4.924,1.122,9.351,3.178,13.499,5.882c1.493,0.975,2.591,2.549,3.866,3.852c0.223,0.227,0.397,0.521,0.656,0.688
		c1.178,0.75,1.352,1.834,0.868,2.989c-0.299,0.712-0.094,1.082,0.401,1.519c3.531,3.112,6.021,7.058,7.947,11.222
		c3.184,6.884,5.426,14.078,5.407,21.827c-0.014,5.975-0.143,11.906-1.863,17.7c-2.234,7.528-5.631,14.389-11.311,19.942
		C74.057,94.934,65.616,97.979,56.008,98.042z M87.682,51.457c-0.248-7.819-1.98-16.321-6.676-24.068
		c-2.085-3.442-4.559-6.588-7.709-9.016c-3.004-2.312-6.106-4.496-9.899-5.683c-2.76-0.864-5.438-1.809-8.334-2.049
		c-0.546-0.047-1.07-0.392-1.596-0.618c-0.486-0.21-0.956-0.631-1.441-0.643c-5.796-0.125-11.104,1.729-16.124,4.376
		c-3.35,1.764-6.309,4.145-9.032,6.826c-3.257,3.211-5.993,6.814-8.055,10.849c-2.911,5.699-4.998,11.707-5.437,18.166
		c-0.543,7.992,1.358,15.39,5.875,21.993c2.21,3.233,4.986,5.97,8.138,8.421c3.773,2.938,7.942,5.003,12.225,6.946
		c4.557,2.066,9.374,3.072,14.343,3.471c9.256,0.748,17.349-1.733,23.631-8.8c2.95-3.32,5.207-7.085,6.761-11.353
		C86.448,64.518,87.583,58.655,87.682,51.457z"/>
	<path style="fill-rule:evenodd;clip-rule:evenodd;" d="M77.047,58.687c-0.723-0.208-2.005-0.432-3.168-0.936
		c-3.813-1.646-7.807-1.991-11.839-1.525c-3.512,0.408-6.389,2.275-8.908,4.721c-1.244,1.209-2.583,2.321-3.852,3.506
		c-1.066,0.994-2.012,2.137-3.158,3.023c-1.439,1.115-2.961,2.158-4.562,3.021c-5.478,2.951-10.476,1.314-15.164-1.924
		c-0.911-0.629-1.616-1.771-2.05-2.825c-0.64-1.552,0.636-2.942,2.252-2.47c1.382,0.402,2.672,1.135,3.983,1.762
		c1.269,0.606,2.458,1.442,3.782,1.86c2.072,0.654,3.939-0.26,5.751-1.209c3.175-1.659,5.607-4.221,8.067-6.717
		c3.762-3.822,8.057-6.586,13.465-7.322c4.18-0.571,8.21,0.092,12.106,1.626c1.434,0.563,2.867,1.173,4.204,1.93
		c0.526,0.298,0.928,1.012,1.142,1.621C79.52,58.03,78.871,58.763,77.047,58.687z"/>
	<path style="fill-rule:evenodd;clip-rule:evenodd;" d="M39.822,41.445c-0.708-0.264-1.472-0.437-2.114-0.817
		c-1.057-0.624-2.063-1.346-3.04-2.094c-1.178-0.899-1.62-3.161-1.021-4.82c0.355-0.985,0.775-1.955,1.033-2.965
		c0.726-2.842,4.678-4.899,7.677-2.201c0.135,0.121,0.347,0.235,0.378,0.381c0.619,2.931,2.676,5.658,1.493,8.838
		C43.372,40.066,42.279,41.199,39.822,41.445z"/>
	<path style="fill-rule:evenodd;clip-rule:evenodd;" d="M59.561,35.742c0.093-2.436,1.3-4.905,3.952-6.2
		c2.708-1.321,4.723-0.523,6.049,2.468c1.509,3.403-0.779,8.18-4.366,9.185C61.967,42.1,59.605,40.035,59.561,35.742z"/>
</g>
</svg>
