<?xml version="1.0" encoding="utf-8"?>
<!-- Generator: Adobe Illustrator 16.0.4, SVG Export Plug-In . SVG Version: 6.00 Build 0)  -->
<!DOCTYPE svg PUBLIC "-//W3C//DTD SVG 1.1//EN" "http://www.w3.org/Graphics/SVG/1.1/DTD/svg11.dtd">
<svg version="1.1" id="Layer_1" xmlns="http://www.w3.org/2000/svg" xmlns:xlink="http://www.w3.org/1999/xlink" x="0px" y="0px"
	 width="100px" height="100px" viewBox="0 0 100 100" style="enable-background:new 0 0 100 100;" xml:space="preserve">
<g>
	<path style="fill-rule:evenodd;clip-rule:evenodd;" d="M55.784,97.971c-7.367-0.299-14.734-1.512-21.502-5.131
		c-3.272-1.75-6.553-3.535-9.593-5.646c-2.884-2.002-5.743-4.189-8.097-6.768c-3.27-3.582-5.822-7.705-7.633-12.311
		c-4.151-10.547-3.866-21.082-0.23-31.621c1.105-3.201,2.471-6.357,4.102-9.326c1.78-3.242,3.724-6.445,6.408-9.08
		c2.455-2.412,4.697-5.123,7.45-7.127c3.681-2.678,7.596-5.016,12.021-6.531c8.813-3.016,17.555-3.311,26.33-0.189
		c2.804,0.996,5.516,2.295,8.175,3.643c1.141,0.578,2.065,1.6,3.041,2.475c1.148,1.029,2.246,2.113,3.363,3.176
		c0.902,0.857,1.27,1.818,0.801,3.076c-0.12,0.32,0.126,0.896,0.378,1.217c1.453,1.852,3.128,3.551,4.416,5.508
		c4.354,6.617,7.106,13.861,8.21,21.734c1.092,7.764,0.512,15.371-1.334,22.996c-1.566,6.475-4.541,12.145-8.602,17.291
		c-3.609,4.576-8.265,7.912-13.604,10.16C65.479,97.371,60.751,97.859,55.784,97.971z M87.444,51.697
		c-0.303-2.832-0.395-6.74-1.195-10.498c-1.269-5.941-3.732-11.432-7.375-16.387c-2.575-3.502-5.781-6.289-9.355-8.611
		c-2.067-1.344-4.434-2.316-6.78-3.117c-3.344-1.143-6.741-2.395-10.212-2.824c-4.164-0.518-8.365,0.168-12.223,2.098
		c-1.945,0.973-3.81,2.119-5.787,3.018c-3.402,1.545-5.941,4.213-8.426,6.789c-2.295,2.379-4.059,5.305-5.845,8.125
		c-1.354,2.137-2.579,4.402-3.505,6.752c-1.897,4.816-2.826,9.875-2.969,15.051c-0.131,4.697,0.738,9.293,2.437,13.615
		c2.323,5.914,6.386,10.691,11.431,14.453c3.797,2.832,7.855,5.275,12.428,6.91c4.959,1.77,9.899,3.322,15.185,3.59
		c9.56,0.484,17.384-2.99,23.504-10.322c2.539-3.041,4.152-6.619,5.67-10.223C86.765,64.564,87.13,58.652,87.444,51.697z"/>
	<path style="fill-rule:evenodd;clip-rule:evenodd;" d="M44.161,75.074c-4.516-0.045-8.775-1.238-12.206-4.084
		c-3.819-3.168-6.03-8.225-3.059-12.633c0.466-0.691,1.551-1.527,2.179-1.406c0.854,0.16,1.781,1.049,2.238,1.869
		c0.554,0.994,0.686,2.232,0.936,3.381c0.449,2.049,1.415,3.602,3.408,4.58c4.445,2.176,9.086,2.047,13.734,1.215
		c2.486-0.443,4.929-1.264,7.309-2.139c2.443-0.898,4.126-2.797,5.352-5.037c0.295-0.537,0.189-1.33,0.161-2
		c-0.047-1.066,0.401-1.809,1.397-2.061c1.121-0.283,1.338,0.703,1.627,1.439c1.521,3.883,0.511,7.223-2.314,10.092
		c-2.877,2.922-6.668,4.174-10.422,5.41C51.153,74.801,47.68,75.197,44.161,75.074z"/>
	<path style="fill-rule:evenodd;clip-rule:evenodd;" d="M45.062,36.361c0.013,2.973-0.823,4.719-2.875,5.762
		c-1.922,0.977-3.562,0.342-5.2-0.791c-1.345-0.932-2.725-1.875-2.873-3.596c-0.257-2.955,0.684-5.758,2.604-7.879
		c2.037-2.248,5.875-1.115,6.881,1.764C44.222,33.406,44.72,35.236,45.062,36.361z"/>
	<path style="fill-rule:evenodd;clip-rule:evenodd;" d="M59.636,37.33c0.68-1.611,1.162-3.348,2.089-4.803
		c1.125-1.77,3.94-2.449,5.741-1.74c1.682,0.662,3.105,3.26,2.902,5.338c-0.285,2.926-1.838,4.992-4.437,6.25
		c-2.626,1.27-5.477-0.371-5.83-3.293c-0.065-0.543-0.12-1.084-0.179-1.627C59.827,37.412,59.731,37.373,59.636,37.33z"/>
</g>
</svg>
