<?xml version="1.0" encoding="utf-8"?>
<!-- Generator: Adobe Illustrator 16.0.4, SVG Export Plug-In . SVG Version: 6.00 Build 0)  -->
<!DOCTYPE svg PUBLIC "-//W3C//DTD SVG 1.1//EN" "http://www.w3.org/Graphics/SVG/1.1/DTD/svg11.dtd">
<svg version="1.1" id="Layer_1" xmlns="http://www.w3.org/2000/svg" xmlns:xlink="http://www.w3.org/1999/xlink" x="0px" y="0px"
	 width="100px" height="100px" viewBox="0 0 100 100" style="enable-background:new 0 0 100 100;" xml:space="preserve">
<g>
	<path style="fill-rule:evenodd;clip-rule:evenodd;" d="M56.602,98.877c-5.36,0.006-10.486-1.146-15.595-2.666
		c-4.182-1.245-7.953-3.214-11.757-5.263c-4.757-2.565-8.922-5.846-12.547-9.764c-2.185-2.361-4.315-4.921-5.82-7.735
		c-4.412-8.255-6.339-17.095-5.17-26.491c0.629-5.053,2.122-9.846,3.951-14.594c1.874-4.872,4.582-9.21,7.727-13.269
		c3.125-4.033,6.801-7.603,11.059-10.452c10.38-6.94,21.603-9.304,33.956-6.528c4.93,1.109,9.236,3.308,13.459,5.799
		c1.327,0.782,2.231,2.279,3.349,3.431c0.419,0.436,0.85,0.882,1.352,1.202c1.196,0.768,1.225,1.814,0.98,3.051
		c-0.092,0.469,0.055,1.133,0.346,1.507c1.765,2.272,4,4.274,5.327,6.768c2.382,4.467,4.87,8.881,6.062,13.973
		c1.409,6.025,2.359,12.038,1.99,18.199c-0.462,7.702-1.841,15.227-5.601,22.088c-1.677,3.062-3.52,6.006-5.879,8.684
		C76.53,95.058,67.363,98.698,56.602,98.877z M88.589,52.848c-0.291-7.226-1.053-14.158-4.072-20.759
		c-3.37-7.364-8.236-13.271-15.229-17.348c-1.578-0.918-3.343-1.532-5.059-2.188c-1.85-0.706-3.739-1.307-5.619-1.93
		c-1.687-0.562-3.8,0.256-5.1-1.595c-0.088-0.122-0.441-0.073-0.671-0.079c-5.889-0.194-11.34,1.631-16.388,4.307
		c-4.402,2.338-8.225,5.571-11.576,9.411c-3.262,3.735-5.726,7.899-7.708,12.341c-1.216,2.723-1.988,5.682-2.646,8.606
		c-2.195,9.758-1.181,19.028,4.312,27.654c2.05,3.222,4.594,6.007,7.45,8.364c2.82,2.326,6.173,4.039,9.392,5.841
		c5.229,2.937,10.799,4.811,16.825,5.459c4.736,0.511,9.457,0.511,13.953-0.835c6.382-1.911,11.402-6.051,14.963-11.618
		c2.052-3.208,3.566-6.816,4.923-10.396C88.208,63.163,88.303,57.906,88.589,52.848z"/>
	<path style="fill-rule:evenodd;clip-rule:evenodd;" d="M50.188,79.857c-5.014,0.059-9.412-1.767-13.595-4.344
		c-4.577-2.823-7.714-6.917-10.136-11.567c-1.221-2.343-1.8-4.97-1.631-7.673c0.183-2.94,1.78-4.822,4.715-5.146
		c1.817-0.202,3.718-0.146,5.527,0.142c8.955,1.41,17.843,1.115,26.726-0.627c4.504-0.886,9.045-1.58,13.576-2.336
		c1.376-0.229,1.756,0.222,1.466,1.575c-0.045,0.207,0.004,0.435-0.022,0.648c-0.117,1.02-0.041,2.114-0.406,3.039
		c-1.343,3.398-2.729,6.789-4.304,10.086c-1.072,2.243-2.45,4.349-3.764,6.471c-0.704,1.138-1.41,2.34-2.372,3.237
		C61.539,77.492,56.384,79.971,50.188,79.857z M33.908,66.363c2.609,4.705,10.843,8.956,17.517,8.453
		c6.326-0.478,12.321-4.55,14.761-10.391c-0.826,0.33-1.54,0.648-2.273,0.904c-0.796,0.28-1.742,0.61-2.23-0.344
		c-0.521-1.02,0.162-1.771,1.004-2.301c0.743-0.47,1.502-0.933,2.304-1.283c2.745-1.204,4.544-3.154,5.247-6.127
		c0.242-1.02,0.809-1.964,1.144-2.748c-4.677,1.031-9.27,2.105-13.888,3.041c-5.958,1.214-11.982,1.434-18.031,0.878
		c-2.587-0.239-5.166-0.616-7.754-0.839c-2.094-0.181-2.562,0.407-2.018,2.391c0.268,0.984,0.613,1.947,0.986,2.894
		c0.095,0.242,0.4,0.446,0.656,0.578c2.956,1.517,5.925,3.004,8.869,4.538c0.275,0.142,0.579,0.577,0.554,0.845
		c-0.024,0.267-0.429,0.668-0.706,0.705c-0.855,0.114-1.767,0.247-2.587,0.061C36.27,67.352,35.136,66.814,33.908,66.363z"/>
	<path style="fill-rule:evenodd;clip-rule:evenodd;" d="M45.377,34.829c0.014,3.489-1.395,5.601-3.803,6.301
		c-2.811,0.816-4.488-1.2-6.287-2.729c-1.277-1.088-1.563-2.673-1.142-4.211c0.483-1.771,1.189-3.489,1.903-5.188
		c0.536-1.277,3.285-2.311,4.763-1.754c1.338,0.507,2.584,1.174,3.021,2.789C44.334,31.896,45.009,33.708,45.377,34.829z"/>
	<path style="fill-rule:evenodd;clip-rule:evenodd;" d="M66.515,28.718c2.708,0.212,5.029,3.177,4.697,6.039
		c-0.341,2.931-1.984,4.933-4.487,6.267c-2.249,1.202-4.762,0.142-5.76-2.32c-1.143-2.814,0.189-7.339,2.745-8.935
		C64.541,29.252,65.575,29.058,66.515,28.718z"/>
</g>
</svg>
