<?xml version="1.0" encoding="utf-8"?>
<!-- Generator: Adobe Illustrator 16.0.4, SVG Export Plug-In . SVG Version: 6.00 Build 0)  -->
<!DOCTYPE svg PUBLIC "-//W3C//DTD SVG 1.1//EN" "http://www.w3.org/Graphics/SVG/1.1/DTD/svg11.dtd">
<svg version="1.1" id="Layer_1" xmlns="http://www.w3.org/2000/svg" xmlns:xlink="http://www.w3.org/1999/xlink" x="0px" y="0px"
	 width="100px" height="100px" viewBox="0 0 100 100" style="enable-background:new 0 0 100 100;" xml:space="preserve">
<g>
	<path style="fill-rule:evenodd;clip-rule:evenodd;" d="M55.635,98.782c-6.893,0.213-13.354-1.58-19.667-4.176
		c-3.388-1.395-6.703-2.872-9.652-5.079c-2.912-2.178-6.107-4.063-8.68-6.585c-2.639-2.585-5.01-5.471-6.912-8.777
		C4.843,63.95,3.92,53.189,6.143,41.831c1.379-7.05,4.289-13.384,8.237-19.239c1.994-2.958,4.481-5.621,6.972-8.199
		c7.05-7.298,15.702-11.614,25.726-13.023c7.676-1.079,15.034,0.23,22,3.648c1.813,0.89,3.777,1.602,5.354,2.811
		c2.063,1.582,3.884,3.51,5.645,5.438c0.488,0.536,0.652,1.661,0.49,2.415c-0.166,0.761,0.044,1.088,0.45,1.635
		c2.531,3.401,5.49,6.605,7.375,10.346c3.66,7.265,6.044,14.976,6.052,23.296c0.007,6.756-0.284,13.438-2.582,19.866
		c-1.429,4.002-2.81,8.076-5.423,11.484c-1.895,2.472-3.683,4.996-6.048,7.166c-5.711,5.238-12.318,8.191-19.898,9.215
		c-0.276,0.036-0.552,0.086-0.828,0.088C58.323,98.787,56.979,98.782,55.635,98.782z M87.856,52.402
		c-0.069-5.873-1.201-11.809-3.225-17.656c-1.636-4.727-4.096-8.936-7.342-12.582c-2.259-2.537-4.77-4.916-7.917-6.621
		c-4.005-2.17-7.898-4.404-12.55-4.777c-0.739-0.062-1.488-0.059-2.21-0.201c-0.464-0.092-0.886-0.396-1.327-0.606
		c-0.485-0.232-0.969-0.664-1.457-0.668c-4.218-0.052-8.337,0.786-12.192,2.35c-5.705,2.312-10.694,5.849-14.79,10.468
		c-3.436,3.875-6.309,8.129-8.256,13.013c-1.881,4.718-3.383,9.481-3.81,14.565c-0.654,7.8,1.335,14.971,5.284,21.603
		c1.239,2.08,2.83,4.054,4.624,5.677c2.821,2.549,5.631,5.108,9.109,6.917c3.736,1.944,7.363,3.995,11.457,5.168
		c5.791,1.659,11.6,2.827,17.659,2.019c7.054-0.939,12.947-4.146,17.457-9.561c2.826-3.396,4.983-7.248,6.444-11.537
		C86.736,64.335,87.802,58.624,87.856,52.402z"/>
	<path style="fill-rule:evenodd;clip-rule:evenodd;" d="M49.445,58.789c5.935,0.256,11.336,1.906,16.15,5.197
		c3.323,2.271,5.428,5.557,6.538,9.443c0.076,0.265,0.188,0.595,0.096,0.814c-0.209,0.496-0.535,0.941-0.813,1.408
		c-0.466-0.283-1.099-0.453-1.368-0.865c-0.932-1.421-1.534-3.101-2.627-4.363c-3.134-3.624-7.283-5.634-11.886-6.664
		c-4.974-1.113-9.832-0.731-14.517,1.444c-2.412,1.12-4.388,2.729-5.949,4.849c-1.014,1.376-1.86,2.879-2.931,4.203
		c-0.383,0.471-1.293,0.912-1.804,0.773c-0.513-0.136-1.241-1.091-1.155-1.55c0.329-1.741,0.654-3.597,1.52-5.098
		c2.342-4.067,6.123-6.501,10.5-7.863C43.868,59.688,46.69,59.349,49.445,58.789z"/>
	<path style="fill-rule:evenodd;clip-rule:evenodd;" d="M38.858,29.548c2.126,0.021,3.647,1.281,4.134,3.364
		c0.188,0.806,0.44,1.604,0.738,2.376c0.658,1.706,0.76,3.412,0.156,5.151c-1.072,3.083-4.197,4.152-6.91,2.363
		c-0.384-0.255-0.778-0.498-1.185-0.713c-2.427-1.292-3.36-3.607-2.478-6.196c0.341-1.002,0.699-1.998,1.055-2.993
		C35.054,30.985,37.005,29.529,38.858,29.548z"/>
	<path style="fill-rule:evenodd;clip-rule:evenodd;" d="M65.416,31.231c2.534,0.004,3.92,1.807,4.494,4.233
		c0.582,2.461-0.778,6.896-4.561,8.089c-2.198,0.695-5.373-0.489-5.744-3.174c-0.427-3.084,0.235-5.734,2.649-7.721
		C63.118,31.95,64.351,31.694,65.416,31.231z"/>
	<path style="fill-rule:evenodd;clip-rule:evenodd;" d="M82.261,53.142c-0.263,0.36-0.55,1.139-1.09,1.401
		c-0.778,0.378-1.725,0.362-2.305-0.598c-1.574-2.605-3.169-5.199-4.74-7.806c-0.485-0.807-0.188-1.479,0.396-2.128
		c0.551-0.614,1.088-0.639,1.932-0.566c3.701,0.315,4.415,3.134,5.19,5.901C81.953,50.451,82.022,51.621,82.261,53.142z"/>
	<path style="fill-rule:evenodd;clip-rule:evenodd;" d="M69.374,55.021c0.14-1.525,0.174-2.829,0.418-4.092
		c0.102-0.527,0.608-1.324,1.005-1.372c0.604-0.072,1.501,0.218,1.875,0.677c2.145,2.635,2.927,5.69,1.724,8.907
		c-0.31,0.83-1.677,1.479-2.687,1.778c-1.016,0.299-1.562-0.744-1.741-1.598C69.658,57.837,69.542,56.313,69.374,55.021z"/>
	<path style="fill-rule:evenodd;clip-rule:evenodd;" d="M25.287,52.37c0.314-0.967,0.773-2.223,1.126-3.508
		c0.595-2.174,2.07-3.763,3.55-5.312c0.388-0.405,1.413-0.644,1.895-0.419c0.778,0.361,0.927,1.328,0.348,2.03
		c-1.31,1.591-1.609,3.463-1.849,5.409c-0.128,1.039-0.511,2.054-0.842,3.056c-0.295,0.895-0.675,1.813-1.866,1.688
		C26.537,55.197,25.318,53.785,25.287,52.37z"/>
</g>
</svg>
