<?xml version="1.0" encoding="utf-8"?>
<!-- Generator: Adobe Illustrator 16.0.4, SVG Export Plug-In . SVG Version: 6.00 Build 0)  -->
<!DOCTYPE svg PUBLIC "-//W3C//DTD SVG 1.1//EN" "http://www.w3.org/Graphics/SVG/1.1/DTD/svg11.dtd">
<svg version="1.1" id="Layer_1" xmlns="http://www.w3.org/2000/svg" xmlns:xlink="http://www.w3.org/1999/xlink" x="0px" y="0px"
	 width="100px" height="100px" viewBox="0 0 100 100" style="enable-background:new 0 0 100 100;" xml:space="preserve">
<g>
	<path style="fill-rule:evenodd;clip-rule:evenodd;" d="M55.378,98.959c-7.096-0.212-14.904-1.862-22.246-5.648
		c-3.178-1.639-6.349-3.232-9.101-5.543c-2.649-2.225-5.575-4.2-7.874-6.743C12.55,77.031,9.742,72.488,7.924,67.3
		C4.108,56.408,4.788,45.764,8.558,35.004c1.62-4.624,3.922-8.816,6.551-12.82c2.116-3.221,4.721-6.13,7.61-8.781
		c3.757-3.449,7.813-6.476,12.455-8.487C45.481,0.45,56.025-0.53,66.711,3.728c1.713,0.682,3.406,1.417,5.125,2.084
		c3.646,1.417,5.862,4.602,8.704,7.011c0.92,0.78,1.253,1.773,0.868,3.01c-0.119,0.378,0.015,0.988,0.267,1.305
		c1.297,1.629,2.83,3.091,3.99,4.806c6.907,10.208,9.955,21.534,9.525,33.822c-0.238,6.795-1.669,13.368-4.225,19.635
		c-1.665,4.081-3.979,7.861-6.878,11.235c-3.653,4.254-8.131,7.403-13.175,9.765C67.827,97.845,61.228,98.957,55.378,98.959z
		 M88.476,51.183c-0.167-1.661-0.38-3.785-0.598-5.91c-0.835-8.145-3.789-15.433-8.893-21.831
		c-3.033-3.801-6.559-7.028-11.044-9.072c-1.519-0.692-3.001-1.505-4.582-2.007c-3.438-1.092-6.881-2.297-10.416-2.914
		c-2.271-0.397-4.752-0.071-7.062,0.353c-4.866,0.894-9.196,3.231-13.233,5.953c-3.488,2.349-6.441,5.336-9.158,8.628
		c-3.132,3.797-5.328,8.052-7.175,12.492c-2.403,5.779-3.233,11.9-2.895,18.147c0.396,7.296,2.761,13.9,7.481,19.516
		c2.894,3.443,6.278,6.367,10.118,8.792c5.762,3.639,11.999,6.057,18.62,7.431c11.483,2.383,21.548-0.123,29.498-9.173
		c2.975-3.387,4.9-7.429,6.497-11.585C87.898,64.114,88.341,57.901,88.476,51.183z"/>
	<path style="fill-rule:evenodd;clip-rule:evenodd;" d="M49.354,67.371c-3.577,0-7.156,0.075-10.729-0.034
		c-1.601-0.049-3.216-0.363-4.778-0.746c-1.834-0.452-2.83-1.65-2.893-3.114c-0.062-1.424,0.867-3.015,2.521-3.477
		c1.569-0.439,3.279-0.589,4.917-0.538c9.464,0.294,18.927,0.648,28.386,1.075c1.821,0.081,3.656,0.449,5.424,0.912
		c1.417,0.372,1.887,1.93,0.876,2.954c-0.833,0.844-1.95,1.72-3.061,1.922C63.189,67.573,56.277,67.729,49.354,67.371z"/>
	<path style="fill-rule:evenodd;clip-rule:evenodd;" d="M45.302,36.068c0.043,3.053-0.798,4.801-2.816,5.863
		c-1.983,1.044-3.711,0.455-5.417-0.779c-3.249-2.347-3.701-3.794-2.217-7.627c0.167-0.428,0.256-0.892,0.343-1.345
		c0.417-2.189,2.06-3.688,4.244-3.856c1.985-0.152,3.889,1.236,4.551,3.359C44.523,33.395,45.019,35.119,45.302,36.068z"/>
	<path style="fill-rule:evenodd;clip-rule:evenodd;" d="M60.542,37.273c0.253-1.596,0.31-3.665,1.853-5.245
		c1.681-1.719,4.6-2.372,6.19-1.41c2.033,1.229,3.001,4.016,2.36,6.474c-0.56,2.149-1.791,3.693-3.712,4.783
		c-3.289,1.863-6.357,0.263-6.613-3.494C60.604,38.151,60.587,37.919,60.542,37.273z"/>
</g>
</svg>
