<?xml version="1.0" encoding="utf-8"?>
<!-- Generator: Adobe Illustrator 16.0.4, SVG Export Plug-In . SVG Version: 6.00 Build 0)  -->
<!DOCTYPE svg PUBLIC "-//W3C//DTD SVG 1.1//EN" "http://www.w3.org/Graphics/SVG/1.1/DTD/svg11.dtd">
<svg version="1.1" id="Layer_1" xmlns="http://www.w3.org/2000/svg" xmlns:xlink="http://www.w3.org/1999/xlink" x="0px" y="0px"
	 width="100px" height="100px" viewBox="0 0 100 100" style="enable-background:new 0 0 100 100;" xml:space="preserve">
<g>
	<path style="fill-rule:evenodd;clip-rule:evenodd;" d="M5.843,51.953c0.285-7.166,1.43-14.166,4.559-20.694
		c1.958-4.084,4.245-7.945,7.045-11.584C22.03,13.722,27.571,8.934,34.223,5.746c9.851-4.722,20.186-5.96,30.774-2.237
		c3.466,1.218,7.032,2.255,9.894,4.675c1.92,1.623,3.731,3.4,5.411,5.27c0.497,0.553,0.633,1.698,0.48,2.484
		c-0.139,0.718-0.034,1.066,0.438,1.521c3.236,3.121,5.635,6.846,7.667,10.821c4.772,9.336,6.321,19.257,5.645,29.664
		c-0.524,8.057-2.856,15.53-6.815,22.464c-2.037,3.567-4.701,6.743-7.875,9.465c-3.521,3.023-7.387,5.524-11.792,6.822
		c-4.99,1.47-10.206,2.131-15.415,1.424c-4.079-0.555-8.164-1.308-12.119-2.42c-2.839-0.8-5.543-2.202-8.174-3.589
		c-3.191-1.68-6.516-3.293-9.283-5.548c-3.351-2.73-6.393-5.924-9.173-9.247c-2.798-3.346-4.9-7.27-6.054-11.485
		C6.6,61.324,5.603,56.713,5.843,51.953z M88.099,52.58c-0.118-8.293-1.826-16.204-5.779-23.554
		c-2.327-4.329-5.359-8.124-9.288-11.072c-5.244-3.933-11.01-6.748-17.671-7.372c-0.55-0.05-1.069-0.408-1.612-0.597
		c-0.41-0.145-0.829-0.326-1.253-0.356c-7.14-0.52-13.439,2.095-19.131,5.911c-7.222,4.843-12.594,11.369-15.917,19.555
		c-1.934,4.766-3.43,9.574-3.862,14.714c-0.626,7.458,1.264,14.357,4.928,20.718c1.482,2.572,3.744,4.73,5.817,6.921
		c2.951,3.115,6.568,5.416,10.327,7.393c2.827,1.485,5.838,2.69,8.874,3.7c9.312,3.099,18.534,3.9,27.614-1.091
		c3.056-1.68,5.644-3.888,7.718-6.471c2.381-2.965,4.465-6.226,5.782-9.944C86.766,65.039,88.143,58.959,88.099,52.58z"/>
	<path style="fill-rule:evenodd;clip-rule:evenodd;" d="M54.306,56.807c4.806-0.091,9.502,1.449,13.722,4.544
		c3.549,2.604,4.82,8.868,2.364,12.442c-0.456,0.665-1.505,1.5-2.082,1.371c-0.883-0.196-1.74-1.055-2.331-1.841
		c-0.465-0.617-0.649-1.539-0.722-2.346c-0.474-5.244-3.879-6.396-8.045-7.15c-5.149-0.933-10.188-0.149-15.126,1.731
		c-2.532,0.963-4.725,2.153-6.34,4.336c-0.732,0.989-1.155,2.021-1.052,3.318c0.046,0.584-0.307,1.344-0.729,1.785
		c-0.656,0.688-1.397,0.524-1.933-0.321c-1.5-2.369-1.181-6.315,0.244-8.674c2.154-3.562,5.587-5.171,9.162-6.653
		C45.415,57.701,49.554,56.781,54.306,56.807z"/>
	<path style="fill-rule:evenodd;clip-rule:evenodd;" d="M33.621,36.021c0.915-1.9,0.838-4.607,2.881-6.421
		c2.664-2.361,6.306-1.178,7.105,2.27c0.237,1.021,0.644,2.004,0.951,3.012c0.628,2.056,0.399,3.998-0.893,5.747
		c-1.458,1.975-3.901,2.356-5.951,0.989c-0.685-0.457-1.413-0.848-2.092-1.311C34.259,39.38,33.706,38.024,33.621,36.021z"/>
	<path style="fill-rule:evenodd;clip-rule:evenodd;" d="M59.915,36.912c0.16-2.097,0.998-4.333,3.124-5.753
		c2.542-1.699,5.964-1.452,7.174,2.674c0.759,2.59-0.636,7.199-4.326,8.401C62.487,43.343,59.932,41.273,59.915,36.912z"/>
</g>
</svg>
