<?xml version="1.0" encoding="utf-8"?>
<!-- Generator: Adobe Illustrator 16.0.4, SVG Export Plug-In . SVG Version: 6.00 Build 0)  -->
<!DOCTYPE svg PUBLIC "-//W3C//DTD SVG 1.1//EN" "http://www.w3.org/Graphics/SVG/1.1/DTD/svg11.dtd">
<svg version="1.1" id="Layer_1" xmlns="http://www.w3.org/2000/svg" xmlns:xlink="http://www.w3.org/1999/xlink" x="0px" y="0px"
	 width="100px" height="100px" viewBox="0 0 100 100" style="enable-background:new 0 0 100 100;" xml:space="preserve">
<g>
	<path style="fill-rule:evenodd;clip-rule:evenodd;" d="M5.036,52.186c0.288-7.245,1.446-14.322,4.609-20.924
		c1.979-4.129,4.292-8.032,7.123-11.712c4.634-6.02,10.236-10.86,16.962-14.083C43.69,0.693,54.139-0.56,64.845,3.205
		c3.504,1.231,7.109,2.279,10.003,4.727c1.942,1.641,3.772,3.438,5.471,5.327c0.501,0.56,0.64,1.718,0.486,2.513
		c-0.141,0.726-0.034,1.078,0.443,1.538c3.271,3.156,5.697,6.921,7.751,10.941c4.825,9.439,6.391,19.47,5.708,29.991
		c-0.53,8.146-2.888,15.702-6.891,22.713c-2.06,3.606-4.753,6.818-7.962,9.57c-3.56,3.058-7.468,5.585-11.922,6.897
		c-5.045,1.485-10.319,2.155-15.585,1.44c-4.124-0.562-8.254-1.322-12.253-2.448c-2.871-0.809-5.604-2.226-8.265-3.627
		c-3.227-1.699-6.588-3.33-9.386-5.609c-3.388-2.762-6.463-5.989-9.274-9.351c-2.829-3.382-4.955-7.349-6.121-11.612
		C5.801,61.66,4.793,56.998,5.036,52.186z M88.203,52.819c-0.119-8.385-1.846-16.384-5.842-23.814
		c-2.353-4.377-5.419-8.214-9.391-11.194c-5.302-3.977-11.131-6.823-17.866-7.454c-0.557-0.051-1.081-0.413-1.63-0.604
		c-0.414-0.146-0.838-0.329-1.267-0.36c-7.219-0.525-13.588,2.118-19.343,5.977c-7.301,4.896-12.734,11.495-16.093,19.771
		c-1.956,4.818-3.467,9.68-3.905,14.876c-0.633,7.54,1.278,14.517,4.983,20.948c1.499,2.601,3.785,4.783,5.882,6.997
		c2.984,3.15,6.641,5.476,10.441,7.475c2.859,1.501,5.902,2.721,8.972,3.74c9.416,3.134,18.739,3.945,27.92-1.102
		c3.09-1.698,5.706-3.931,7.803-6.543c2.407-2.998,4.515-6.295,5.846-10.054C86.855,65.417,88.248,59.269,88.203,52.819z"/>
	<path style="fill-rule:evenodd;clip-rule:evenodd;" d="M54.036,57.094c4.859-0.094,9.607,1.465,13.874,4.594
		c3.588,2.633,4.874,8.967,2.39,12.58c-0.461,0.672-1.521,1.517-2.105,1.385c-0.893-0.197-1.759-1.064-2.356-1.859
		c-0.47-0.625-0.656-1.556-0.73-2.374c-0.479-5.301-3.922-6.466-8.134-7.229c-5.207-0.942-10.301-0.149-15.294,1.751
		c-2.561,0.975-4.778,2.178-6.411,4.383c-0.74,1.002-1.167,2.044-1.063,3.357c0.046,0.59-0.311,1.357-0.736,1.803
		c-0.664,0.697-1.413,0.531-1.955-0.324c-1.517-2.395-1.194-6.385,0.247-8.77c2.178-3.602,5.649-5.228,9.263-6.727
		C45.046,57.997,49.231,57.066,54.036,57.094z"/>
	<path style="fill-rule:evenodd;clip-rule:evenodd;" d="M46.584,30.727c2.993-3.339-1.925-8.29-4.933-4.934
		c-1.318,1.472-2.723,2.864-4.111,4.263c-0.887-0.476-1.792-0.917-2.708-1.319c-1.741-0.765-3.731-0.526-4.773,1.252
		c-0.877,1.496-0.491,4.007,1.251,4.772c0.467,0.205,0.928,0.419,1.384,0.64c-1.489,1.93-2.75,4.028-3.569,6.468
		c-1.435,4.277,5.304,6.097,6.729,1.854c0.569-1.695,1.489-3.213,2.595-4.623c0.723,0.636,1.406,1.328,2.04,2.092
		c1.215,1.466,3.683,1.251,4.933,0c1.438-1.437,1.213-3.471,0-4.933c-0.659-0.794-1.376-1.528-2.135-2.219
		C44.439,32.941,45.576,31.853,46.584,30.727z"/>
	<path style="fill-rule:evenodd;clip-rule:evenodd;" d="M74.492,36.365c-1.111-1.101-2.263-2.154-3.437-3.182
		c0.706-0.821,1.451-1.615,2.273-2.351c3.36-3.005-1.591-7.922-4.933-4.933c-1.036,0.927-1.983,1.928-2.868,2.978
		c-0.91-0.619-1.833-1.223-2.789-1.778c-3.895-2.271-7.404,3.758-3.521,6.023c0.803,0.469,1.572,0.975,2.333,1.489
		c-1.107,1.923-2.091,3.927-3.003,5.947c-1.833,4.067,4.177,7.617,6.024,3.521c0.783-1.736,1.609-3.453,2.526-5.111
		c0.835,0.753,1.654,1.529,2.46,2.328C72.756,44.469,77.691,39.535,74.492,36.365z"/>
</g>
</svg>
