<?xml version="1.0" encoding="UTF-8" standalone="no"?>
<!-- Created with Inkscape (http://www.inkscape.org/) -->
<svg
   xmlns:dc="http://purl.org/dc/elements/1.1/"
   xmlns:cc="http://web.resource.org/cc/"
   xmlns:rdf="http://www.w3.org/1999/02/22-rdf-syntax-ns#"
   xmlns:svg="http://www.w3.org/2000/svg"
   xmlns="http://www.w3.org/2000/svg"
   xmlns:sodipodi="http://sodipodi.sourceforge.net/DTD/sodipodi-0.dtd"
   xmlns:inkscape="http://www.inkscape.org/namespaces/inkscape"
   version="1.0"
   width="316.81"
   height="319.23001"
   id="svg2"
   sodipodi:version="0.32"
   inkscape:version="0.45"
   sodipodi:docname="Teddybear_jarno_vasamaa_head.svg"
   sodipodi:docbase="/home/rugby471/Desktop"
   inkscape:output_extension="org.inkscape.output.svg.inkscape"
   sodipodi:modified="true">
  <metadata
     id="metadata22">
    <rdf:RDF>
      <cc:Work
         rdf:about="">
        <dc:format>image/svg+xml</dc:format>
        <dc:type
           rdf:resource="http://purl.org/dc/dcmitype/StillImage" />
      </cc:Work>
    </rdf:RDF>
  </metadata>
  <sodipodi:namedview
     inkscape:window-height="626"
     inkscape:window-width="910"
     inkscape:pageshadow="2"
     inkscape:pageopacity="0.0"
     guidetolerance="10.0"
     gridtolerance="10.0"
     objecttolerance="10.0"
     borderopacity="1.0"
     bordercolor="#666666"
     pagecolor="#ffffff"
     id="base"
     width="316.81px"
     height="319.23px"
     inkscape:zoom="1.2870295"
     inkscape:cx="156.90457"
     inkscape:cy="196.86494"
     inkscape:window-x="51"
     inkscape:window-y="27"
     inkscape:current-layer="svg2" />
  <defs
     id="defs3" />
  <g
     transform="translate(-152.73616,-68.25877)"
     id="g3470">
    <path
       d="M 264.67156,129.06139 C 262.28174,159.28642 235.83749,181.84833 205.6132,179.44927 C 175.3889,177.05022 152.83507,150.59908 155.24336,120.37552 C 157.63318,90.150493 184.07743,67.588583 214.30172,69.987639 C 244.52602,72.386695 267.07985,98.837832 264.67156,129.06139 L 264.67156,129.06139 z "
       style="fill:#000000;fill-opacity:1;fill-rule:evenodd;stroke:none;stroke-width:2.20000005;stroke-linejoin:round;stroke-miterlimit:4;stroke-opacity:0.80540538"
       id="path5856" />
    <path
       d="M 260.20508,128.70685 C 258.01035,156.46452 233.72482,177.18464 205.96781,174.98143 C 178.21081,172.77822 157.49811,148.48636 159.7098,120.73003 C 161.90454,92.972353 186.19007,72.252234 213.94707,74.455448 C 241.70407,76.658663 262.41678,100.95052 260.20508,128.70685 L 260.20508,128.70685 z "
       style="fill:#b64d00;fill-opacity:1;fill-rule:evenodd;stroke:none;stroke-width:2.20000005;stroke-linejoin:round;stroke-miterlimit:4;stroke-opacity:0.80540538"
       id="path5096" />
    <path
       d="M 468.69999,146.37982 C 466.31017,176.60484 439.86592,199.16675 409.64163,196.7677 C 379.41733,194.36864 356.8635,167.9175 359.27179,137.69394 C 361.66161,107.46892 388.10586,84.907006 418.33015,87.306062 C 448.55445,89.705118 471.10828,116.15625 468.69999,146.37982 L 468.69999,146.37982 z "
       style="fill:#000000;fill-opacity:1;fill-rule:evenodd;stroke:none;stroke-width:2.20000005;stroke-linejoin:round;stroke-miterlimit:4;stroke-opacity:0.80540538"
       id="path6616" />
    <path
       d="M 464.23356,146.02528 C 462.03883,173.78296 437.7533,194.50307 409.9963,192.29986 C 382.23929,190.09665 361.52659,165.80479 363.73829,138.04846 C 365.93302,110.29078 390.21855,89.570665 417.97555,91.773879 C 445.73256,93.977094 466.44526,118.26895 464.23356,146.02528 L 464.23356,146.02528 z "
       style="fill:#b64d00;fill-opacity:1;fill-rule:evenodd;stroke:none;stroke-width:2.20000005;stroke-linejoin:round;stroke-miterlimit:4;stroke-opacity:0.80540538"
       id="path6618" />
    <path
       d="M 210.80237,353.94586 C 166.55009,317.37032 166.55009,317.37032 163.43298,267.52838 C 160.31588,217.68645 156.63992,174.88508 182.49169,146.2357 C 208.34347,117.58632 221.17622,104.43506 275.25175,106.36567 C 329.32729,108.29627 385.74584,110.41286 425.49837,144.26959 C 465.2509,178.12631 441.7711,266.00507 437.93784,284.59395 C 434.10458,303.18283 404.79209,345.72738 384.55775,363.01443 C 364.32341,380.30147 323.37452,391.22102 286.25891,383.55167 C 249.1433,375.88233 210.80237,353.94586 210.80237,353.94586 z "
       style="fill:#000000;fill-opacity:1;fill-rule:evenodd;stroke:none;stroke-width:1px;stroke-linecap:butt;stroke-linejoin:miter;stroke-opacity:1"
       id="path2055" />
    <path
       d="M 215.09873,348.73276 C 172.91583,313.92231 172.91583,313.92231 169.93866,266.49272 C 166.9615,219.06313 163.45254,178.33323 188.08924,151.07389 C 212.72594,123.81454 224.95566,111.30148 276.49718,113.1453 C 328.0387,114.98912 381.81345,117.01019 419.70715,149.23289 C 457.60085,181.45559 435.23226,265.07744 431.58094,282.766 C 427.92961,300.45457 399.99609,340.93602 380.71217,357.38375 C 361.42824,373.83147 322.39978,384.21738 287.02264,376.91472 C 251.64551,369.61206 215.09873,348.73276 215.09873,348.73276 z "
       style="fill:#b95800;fill-opacity:1;fill-rule:evenodd;stroke:none;stroke-width:1px;stroke-linecap:butt;stroke-linejoin:miter;stroke-opacity:1"
       id="path1291" />
    <path
       d="M 237.05739,354.63953 C 219.38312,341.17314 194.53386,329.54994 191.78049,305.20441 C 189.02714,280.85889 184.51647,249.13577 208.75029,238.99585 C 232.98409,228.85592 300.69299,231.81762 328.4414,236.43285 C 356.18982,241.04808 388.785,243.63532 401.42219,261.52729 C 414.05938,279.41926 407.69015,300.62798 401.51123,319.43911 C 395.33229,338.25024 363.16226,359.82372 351.1405,363.69489 C 339.11875,367.56606 308.8518,365.16362 287.89776,363.50039 C 266.94372,361.83716 237.05739,354.63953 237.05739,354.63953 z "
       style="fill:#000000;fill-opacity:1;fill-rule:evenodd;stroke:none;stroke-width:1px;stroke-linecap:butt;stroke-linejoin:miter;stroke-opacity:1"
       id="path3574" />
    <path
       d="M 239.66424,350.68265 C 222.68473,338.09841 198.82827,327.21561 196.13443,304.52879 C 193.44061,281.84198 189.04534,252.27822 212.26394,242.88471 C 235.48253,233.4912 300.42343,236.39858 327.0449,240.75897 C 353.66639,245.11935 384.93159,247.60102 397.09011,264.2972 C 409.24865,280.99338 403.18682,300.7379 397.30227,318.24921 C 391.41771,335.76051 360.61311,355.78838 349.09244,359.36852 C 337.57178,362.94867 308.5398,360.64426 288.44074,359.04889 C 268.34169,357.45353 239.66424,350.68265 239.66424,350.68265 z "
       style="fill:#b54300;fill-opacity:1;fill-rule:evenodd;stroke:none;stroke-width:1px;stroke-linecap:butt;stroke-linejoin:miter;stroke-opacity:1"
       id="path1293" />
    <path
       d="M 271.6399,202.6517 C 270.9546,211.28535 262.40025,217.6494 252.53323,216.8662 C 242.6662,216.083 235.22294,208.44915 235.90824,199.8155 C 236.59353,191.18185 245.14788,184.8178 255.01491,185.601 C 264.88193,186.3842 272.32519,194.01805 271.6399,202.6517 z "
       style="fill:#ffffff;fill-opacity:1;fill-rule:evenodd;stroke:none;stroke-width:2.20000005;stroke-linejoin:round;stroke-miterlimit:4;stroke-opacity:0.80540538"
       id="path4334" />
    <path
       d="M 372.13516,210.62852 C 371.44986,219.26217 362.89551,225.62622 353.02849,224.84302 C 343.16146,224.05982 335.7182,216.42597 336.4035,207.79232 C 337.08879,199.15867 345.64314,192.79462 355.51017,193.57782 C 365.37719,194.36102 372.82045,201.99487 372.13516,210.62852 z "
       style="fill:#ffffff;fill-opacity:1;fill-rule:evenodd;stroke:none;stroke-width:2.20000005;stroke-linejoin:round;stroke-miterlimit:4;stroke-opacity:0.80540538"
       id="path5094" />
    <path
       d="M 325.36091,261.97463 C 324.72958,269.99389 311.71384,275.50372 296.29297,274.27969 C 280.87209,273.05566 268.88855,265.56151 269.5302,257.54307 C 270.16154,249.5238 283.17728,244.01398 298.59815,245.23801 C 314.01903,246.46204 326.00257,253.95619 325.36091,261.97463 z "
       style="fill:#000000;fill-opacity:1;fill-rule:evenodd;stroke:none;stroke-width:2.20000005;stroke-linejoin:round;stroke-miterlimit:4;stroke-opacity:0.80540538"
       id="path6620" />
    <path
       d="M 260.29649,203.99862 C 260.102,206.46646 257.94305,208.30894 255.47531,208.11306 C 253.00758,207.91718 251.16632,205.75719 251.36358,203.28957 C 251.55807,200.82173 253.71703,198.97926 256.18476,199.17514 C 258.6525,199.37101 260.49375,201.531 260.29649,203.99862 z "
       style="fill:#000000;fill-opacity:1;fill-rule:evenodd;stroke:none;stroke-width:2.20000005;stroke-linejoin:round;stroke-miterlimit:4;stroke-opacity:0.80540538"
       id="path6622" />
    <path
       d="M 358.29265,215.14802 C 358.0479,218.23147 355.34987,220.53269 352.26642,220.28794 C 349.18298,220.04319 346.88176,217.34515 347.1265,214.26171 C 347.37125,211.17826 350.06929,208.87704 353.15274,209.12179 C 356.23618,209.36654 358.5374,212.06458 358.29265,215.14802 z "
       style="fill:#000000;fill-opacity:1;fill-rule:evenodd;stroke:none;stroke-width:2.20000005;stroke-linejoin:round;stroke-miterlimit:4;stroke-opacity:0.80540538"
       id="path6624" />
    <path
       d="M 220.85469,302.99746 C 220.85469,302.99746 214.81539,323.98999 245.37154,335.40458 C 275.92769,346.81918 312.01387,345.18892 312.01387,345.18892 C 312.01387,345.18892 336.22486,347.03443 348.10005,338.98782 C 359.97524,330.94122 368.37285,310.81249 368.37285,310.81249 C 368.37285,310.81249 356.04058,328.45785 339.87619,333.9167 C 323.7118,339.37555 262.44645,337.30228 245.11241,329.18449 C 227.77837,321.0667 220.85469,302.99746 220.85469,302.99746 z "
       style="fill:#000000;fill-opacity:1;fill-rule:evenodd;stroke:none;stroke-width:1px;stroke-linecap:butt;stroke-linejoin:miter;stroke-opacity:1"
       id="path6626" />
    <path
       d="M 178.6397,187.20987 C 195.61974,154.1109 205.08322,143.37982 220.25186,133.10158 C 235.42052,122.82334 221.15756,121.69121 258.46767,121.78214 C 295.77776,121.87308 235.19409,125.67593 216.26715,147.13811 C 197.34021,168.60028 178.6397,187.20987 178.6397,187.20987 z "
       style="fill:#fea600;fill-opacity:0.28108108;fill-rule:evenodd;stroke:none;stroke-width:1px;stroke-linecap:butt;stroke-linejoin:miter;stroke-opacity:1"
       id="path14279" />
    <path
       d="M 204.78759,274.57774 C 204.78759,274.57774 196.68266,268.19329 209.22515,254.83603 C 221.76763,241.47878 241.50934,245.91634 241.50934,245.91634 C 241.50934,245.91634 227.24639,244.78421 217.78292,255.51531 C 208.31944,266.24639 204.78759,274.57774 204.78759,274.57774 z "
       style="fill:#fea600;fill-opacity:0.2918919;fill-rule:evenodd;stroke:none;stroke-width:1px;stroke-linecap:butt;stroke-linejoin:miter;stroke-opacity:1"
       id="path14285" />
  </g>
</svg>
